<?xml version="1.0" encoding="UTF-8"?>
<svg id="Layer_2" data-name="Layer 2" xmlns="http://www.w3.org/2000/svg" viewBox="0 0 1317.15 2697.97">
  <defs>
    <style>
      .cls-1 {
        fill: #fff;
      }
    </style>
  </defs>
  <g id="Layer_1-2" data-name="Layer 1">
    <g>
      <path class="cls-1" d="M678.01,1905.67h-44.34c-8.73,0-15.81,7.12-15.81,15.85,0,15.24,0,29.51,0,43.77,0,195.48,.99,390.96-1.01,586.42-.34,32.64-6.4,69.56-22.74,96.73-27.71,46.09-76.05,57.42-127.68,44.59-52.14-12.95-86.49-59.35-87.37-121.6-1.59-111.17-.54-222.37-.56-333.56-.02-104.22,0-208.44,0-319.57,0-8.73-7.13-15.89-15.86-15.89-33.26-.02-63.7-.07-94.14,.03-40.36,.14-53.9-17.96-44.68-58.07,48.88-212.66,96.64-425.58,144.75-638.42,16.95-75,35.5-149.7,49.41-225.26,.25-1.37,.39-2.77,.42-4.18,.7-28.82-38.01-40.79-55.57-17.93-2.24,2.92-3.98,6-5.01,9.29-55.76,179.25-108.55,359.42-162.37,539.27-20.05,67.02-52.97,93.95-108.58,89.81-68-5.06-102.68-62.7-79.89-138.51,47.36-157.54,96.72-314.48,144.97-471.75,13.83-45.08,26.64-90.47,40.22-135.63,40.68-135.3,163.83-228.71,305.08-231.74,110.38-2.37,220.89-2.34,331.25,.39,136.77,3.38,248.31,88.41,289.15,217.75,62.44,197.76,123.36,396,184.73,594.1,4.76,15.35,8.5,31.07,11.77,46.81,11.33,54.56-10.07,100.87-52.72,115.05-57.24,19.02-113.17-3.21-131.91-59.67-37.73-113.67-71.43-228.69-106.15-343.35-21.24-70.13-40.68-140.81-62.19-210.86-7.27-23.68-6.23-62.3-45.57-52.36-43.38,10.96-21.39,46.8-15.77,71.76,42.82,190.15,87.43,379.91,130.85,569.93,20.72,90.68,38.9,181.96,60.58,272.4,10.38,43.3-5.13,61.21-47.35,61.16-30.65-.03-61.3-.01-94.85,0-8.73,0-15.86,7.14-15.86,15.87,0,50.73,0,96.03,0,141.34,0,164.99,.63,329.98-.67,494.96-.21,26.13-4.7,54.13-15.01,77.88-21.56,49.7-75.74,73.49-129.85,62.51-55.56-11.27-91.53-51.64-92.59-115.65-2.37-143.43-1.1-286.92-1.24-430.38-.07-73.85-.02-147.7-.01-227.39,0-8.73-7.08-15.89-15.81-15.89Z"/>
      <path class="cls-1" d="M660.39,533.06c-149.19,.45-268.42-114.76-270.88-261.75C387.03,123.18,509.34-.71,657.37,0c147.67,.71,267.46,119.78,267.55,265.94,.09,148.84-116.6,266.67-264.53,267.12Z"/>
    </g>
  </g>
</svg>