<?xml version="1.0" encoding="UTF-8"?>
<svg id="Layer_2" data-name="Layer 2" xmlns="http://www.w3.org/2000/svg" viewBox="0 0 1165.07 2704.34">
  <defs>
    <style>
      .cls-1 {
        fill: #fff;
      }
    </style>
  </defs>
  <g id="Layer_1-2" data-name="Layer 1">
    <g>
      <path class="cls-1" d="M592.92,1683.51h-23.96c-15.57,0-28.2,12.66-28.2,28.23,0,11.21,0,21.91,0,32.61,0,269.02,.03,538.04-.02,807.05-.02,100.16-40,152.39-116.84,152.92-76.82,.53-119.82-53.65-119.83-151.49-.05-518.31,.26-1036.62-1-1554.92-.06-23.02,2.3-61.94-22.07-65.72-42.62-6.62-39.01,38.77-41.36,66.58-15.56,183.93-29.27,368.02-43.37,552.07-4.86,63.51-49.34,110.87-103.57,109.47-54.72-1.41-97.34-50.43-92.29-116.06,16.76-217.95,32.95-436.04,56.07-653.37,15.34-144.19,155.79-268,304.21-272.19,148.73-4.2,297.78-4.4,446.5,.08,156.07,4.7,289.73,133,304.73,288.99,19.21,199.77,34.84,399.88,51.83,599.86,1.21,14.27,1.31,28.67,1.33,43.01,.08,61.22-39.62,107.11-94.53,109.56-50.18,2.25-96.49-41.69-101.24-98.77-14.43-173.24-27.7-346.58-42.06-519.82-2.36-28.5-5.09-57.59-13.3-84.69-.95-3.13-2.97-5.93-5.64-8.54-15.14-14.76-42.12-7.66-46.45,13.03-.02,.12-.05,.23-.07,.35-3.38,17.3-1.27,35.7-1.27,53.63-.02,505.75-.02,1011.51-.03,1517.26,0,16.14,.67,32.33-.29,48.41-4.39,73.77-54.67,124.1-122.57,123.25-66.29-.83-114.4-48.38-115.55-122.4-2.24-143.44-.88-286.94-.93-430.41-.05-144.93-.02-289.85-.01-439.71,0-15.57-12.63-28.28-28.2-28.28Z"/>
      <path class="cls-1" d="M583.36,533.08c-148.93-.15-268.18-117.34-268.55-263.93C314.43,119.96,435.5-.64,585.02,0c147.58,.63,266.89,121.09,265.22,267.78-1.71,149.55-118.29,265.45-266.88,265.3Z"/>
    </g>
  </g>
</svg>